<svg width="100" height="74" viewBox="0 0 100 74" fill="none" xmlns="http://www.w3.org/2000/svg">
<path d="M59.1367 19.8126L74.818 35.6378C75.4077 36.2328 75.4118 37.1906 74.8273 37.7907L58.6759 54.3748M59.1367 19.8126L47.8782 8.71047C41.8674 2.78316 32.1999 2.81697 26.2307 8.78616L8.86186 26.155C2.86302 32.1539 2.86302 41.8799 8.86186 47.8788L26.2314 65.2482C32.2603 71.2772 42.0458 71.2425 48.0318 65.1709L58.6759 54.3748M59.1367 19.8126L65.3913 13.4674C67.7856 11.0384 71.7001 11.0243 74.1119 13.436L93.6553 32.9794C96.0548 35.3789 96.0548 39.2693 93.6553 41.6689L74.1106 61.2135C71.6993 63.6248 67.7858 63.6113 65.3913 61.1834L58.6759 54.3748M59.1367 19.8126L52.3911 26.4646C49.9987 28.8237 46.1549 28.8237 43.7626 26.4646L41.3614 24.0968C38.9571 21.7259 35.0901 21.7394 32.7024 24.1271L24.0037 32.8258C21.6042 35.2253 21.6042 39.1157 24.0037 41.5152L32.7029 50.2144C35.0904 52.6019 38.957 52.6156 41.3614 50.2451L43.6098 48.0284C46.0019 45.6699 49.8447 45.6697 52.237 48.0279L58.6759 54.3748" stroke="url(#paint0_linear_28_32)" stroke-width="7.68049"/>
<defs>
<linearGradient id="paint0_linear_28_32" x1="41.4716" y1="-27.3456" x2="101.994" y2="84.9432" gradientUnits="userSpaceOnUse">
<stop stop-color="#1559BF"/>
<stop offset="1" stop-color="#BB0DE7" stop-opacity="0.58"/>
</linearGradient>
</defs>
</svg>
