<svg width="101" height="75" viewBox="0 0 101 75" fill="none" xmlns="http://www.w3.org/2000/svg">
<path d="M59.7721 20.0393L75.6164 36.0289C76.2122 36.6302 76.2163 37.5979 75.6258 38.2043L59.3065 54.9607M59.7721 20.0393L48.3966 8.82178C42.3233 2.83287 32.5554 2.86703 26.5241 8.89826L8.97473 26.4477C2.91355 32.5088 2.91356 42.336 8.97474 48.3971L26.5248 65.9472C32.6164 72.0388 42.5035 72.0037 48.5518 65.869L59.3065 54.9607M59.7721 20.0393L66.0917 13.6281C68.5109 11.1739 72.4661 11.1596 74.9029 13.5964L94.6494 33.3429C97.0739 35.7674 97.0739 39.6982 94.6494 42.1227L74.9016 61.8705C72.4653 64.3068 68.5111 64.2932 66.0916 61.8401L59.3065 54.9607M59.7721 20.0393L52.9563 26.7604C50.5391 29.1441 46.6554 29.1441 44.2382 26.7604L41.8121 24.368C39.3828 21.9724 35.4756 21.9861 33.0631 24.3986L24.274 33.1877C21.8495 35.6122 21.8495 39.543 24.274 41.9675L33.0635 50.757C35.4758 53.1694 39.3827 53.1832 41.8121 50.7881L44.0838 48.5483C46.5008 46.1654 50.3835 46.1652 52.8007 48.5479L59.3065 54.9607" stroke="url(#paint0_linear_30_6)" stroke-width="7.76031"/>
<defs>
<linearGradient id="paint0_linear_30_6" x1="41.9234" y1="-27.609" x2="103.075" y2="85.8468" gradientUnits="userSpaceOnUse">
<stop offset="0.0980739" stop-color="#1559BF"/>
<stop offset="0.81595" stop-color="#C011EC" stop-opacity="0.8"/>
</linearGradient>
</defs>
</svg>
